<svg xmlns="http://www.w3.org/2000/svg" xml:space="preserve" style="enable-background:new 0 0 64 16" viewBox="0 0 64 16"><path d="M10.6 1 7.7 11.4c-.1.2-.1.3-.3.4-.1.1-.4.1-.7.1h-.8c-.2 0-.3 0-.5-.1-.1-.1-.2-.2-.2-.3v-.2L8.1 1H3.3L.1 12.6c-.1.1-.1.3-.1.4v.4c.1.5.4.8.9 1.1s1.2.5 1.9.5h5.4c1.3 0 2.2-.2 2.8-.4.5-.3.9-.8 1.1-1.6l3.3-12h-4.8zm17.3 0H17.6l-.9 3.1H27l.9-3.1zM13.7 15h4.8l1.6-5.7h5.5l.9-3.1H16.2L13.7 15zm17.9-3.7 1.9-6.7c.1-.2.1-.3.3-.4.1-.1.4-.1.7-.1h5.1l.8-3.1h-7.2c-1.3 0-2.2.1-2.8.4-.5.2-.9.8-1.1 1.6l-2.7 9.5c0 .1-.1.3-.1.4v.4c.1.5.4.8.9 1.1s1.1.4 1.8.4h7.6l.9-3.1h-5.5c-.3 0-.7 0-.6-.4zm11.5.7c1.1 0 2-.2 2.8-.5L47 7.7h-2.7l-.4 1.4H45l-.4 1.3c-.3.1-.8.1-1.2.1-.7 0-.9 0-.9-.5 0-.1.1-.4.1-.7l.8-2.7c.2-.7.5-1.1 1.4-1.1.6 0 1.6.1 2.2.3l.5-1.5c-.5-.1-1.6-.3-2.4-.3-2.1 0-3 .9-3.4 2.3l-.9 3.4c-.1.2-.1.3-.1.5-.1 1.1.6 1.8 2.4 1.8zm5.9-.1h1.7l.6-2.3 4-5.6h-2L51 7.7l-.5-3.6h-1.8l1 5.6-.7 2.2zm6.8 0 1.4-4.3.4 3.3h1.8l2.2-3.3-.9 4.3h1.7L64 4.1h-1.7l-3.3 5-.5-5h-1.7l-2.6 7.8h1.6zM39.3 15h23.2l.4-1.5H39.7l-.4 1.5z" style="fill:#d22108"/></svg>