<svg xmlns="http://www.w3.org/2000/svg" id="Layer_1" viewBox="0 0 1344 391.5"><defs><filter id="drop-shadow-1" filterUnits="userSpaceOnUse"><feOffset dx="7" dy="7"/><feGaussianBlur result="blur"/><feFlood flood-color="#000" flood-opacity=".75"/><feComposite in2="blur" operator="in"/><feComposite in="SourceGraphic"/></filter><style>.cls-1,.cls-2{fill:#d95045;stroke-width:0}.cls-2{fill:#fed87c}</style></defs><path d="M159.18 0h1025.64v335.57H159.18z" class="cls-2"/><path d="M0 55.93h149.72v289.1l46.46 44.75H3.44l98.09-165.21L0 55.93zM1344 57.65h-149.72v289.11l-46.46 44.74h192.74l-98.09-165.21L1344 57.65z" class="cls-2"/><g style="filter:url(#drop-shadow-1)"><path d="M316.08 37.97h45.89l-2 7.87c-6.4 0-8.8 5.6-17.08 38.82-8.27 33.22-8.67 38.82-2.27 38.82l-1.87 7.87h-45.89l1.87-7.87c6.14 0 8.27-4 16.01-34.29h-22.68c-7.47 30.28-7.2 34.29-1.07 34.29l-1.87 7.87h-45.89l1.87-7.87c6.4 0 8.94-5.6 17.21-38.82 8.27-33.22 8.54-38.82 2.13-38.82l2-7.87h45.89l-2 7.87c-5.87 0-8.81 5.87-15.61 32.95h22.55c6.67-27.08 6.67-32.95.8-32.95l2-7.87ZM432.28 103.48c-4.67 19.08-20.81 29.48-43.76 29.48-28.02 0-40.69-14.94-34.69-39.36 4.67-18.94 20.68-29.35 43.76-29.35 28.02 0 40.69 14.94 34.69 39.22Zm-31.35-2.53c5.07-20.68 3.47-27.48-2.94-27.48-4.67 0-8.54 6.4-12.67 22.68-5.2 20.54-3.6 27.62 2.8 27.62 4.67 0 8.8-6.54 12.81-22.81ZM440.95 112.15l6.67-26.68c8.14-32.55 8.94-39.76 2.53-39.76l1.87-7.74h39.09c-3.74 10.67-9.74 33.22-13.21 47.49-7.87 32.42-8 37.35-1.6 37.35l-1.73 6.54c-3.2 2-10.54 3.6-18.01 3.6-12.94 0-18.68-8.81-15.61-20.81ZM489.78 112.02l3.34-13.47c4.54-18.28 4.8-25.08-1.2-25.08l1.87-7.74h38.55c-3.34 10.81-6.4 22.55-8.94 32.82-4.54 18.41-4.54 24.28 1.47 24.28l-1.73 6.54c-3.2 2-10.54 3.6-18.01 3.6-12.54 0-18.41-8.4-15.34-20.95Zm46.96-67.64c0 9.21-8.54 15.48-18.68 15.48s-16.81-5.07-16.81-12.81c0-9.21 8.67-15.48 18.81-15.48s16.68 5.07 16.68 12.81ZM630.39 37.97c-4.27 12.67-9.47 32.68-13.21 47.49-8.67 34.42-7.2 37.35-1.6 37.35l-1.73 6.54c-2.94 2-8.54 3.6-14.94 3.6-9.07 0-15.61-4.4-16.81-12.81-4.67 7.6-11.87 12.81-23.75 12.81-19.61 0-28.02-15.34-22.68-37.09 4-16.28 14.81-31.62 34.42-31.62 9.07 0 16.54 2.8 19.48 10.54 5.6-23.48 5.6-29.08-.13-29.08l1.87-7.74h39.09ZM579.7 75.99c-4.67 0-8.81 7.2-12.41 21.35-4 15.61-2.67 23.75 3.07 23.75 5.2 0 9.47-7.6 13.34-22.55 3.87-14.94 2.4-22.55-4-22.55ZM706.3 122.82l-1.73 6.54c-2.93 2-8.54 3.6-14.94 3.6-9.21 0-15.74-4.4-16.81-13.07-5.07 7.74-13.07 13.07-25.08 13.07-18.28 0-26.81-15.34-21.08-38.29 3.74-15.08 17.21-30.42 39.62-30.42 9.74 0 18.14 3.6 22.15 12.01 4.54-3.87 10.14-7.87 16.68-11.07h9.21c-4.14 12.27-8.14 26.95-10.27 35.49-4.67 18.28-3.07 22.15 2.27 22.15Zm-34.82-48.96c-4.67 0-8.94 5.87-12.54 20.01-4.54 17.88-3.6 27.21 2.13 27.21 5.2 0 9.47-7.6 13.34-22.55 3.87-14.94 3.47-24.68-2.94-24.68ZM768.86 65.72h39.09c-3.47 9.47-6.94 22.55-12.67 46.03-9.34 38.29-24.95 48.69-55.36 48.69-19.88 0-26.68-8.67-24.68-18.14 2-9.21 15.08-13.87 28.95-6-5.74 7.34-4.27 14.94 2.27 14.94 7.34 0 13.21-11.34 17.74-31.62-6.14 6.14-14.41 9.87-24.55 9.87-15.48 0-23.61-5.47-18.01-27.75 6.54-26.01 5.87-28.28-.4-28.28l1.87-7.74h39.09c-3.6 9.74-6 18.28-10.27 36.02-2.54 10.41-.8 13.47 3.33 13.47 6 0 10.01-4.94 14.01-21.21 3.47-14.01 3.33-20.54-2.27-20.54l1.87-7.74ZM943.09 37.97l-9.87 39.89-8.4 2.67-10.54-33.35h-1.73l-9.34 37.49c-8.14 32.55-8.27 38.96.4 38.96l-1.87 7.74h-51.23l1.87-7.74c8.8 0 11.74-6.4 19.88-38.96l9.34-37.49h-1.73l-27.08 33.35-7.07-2.67 9.87-39.89h87.52ZM1014.07 103.48c-4.67 19.08-20.81 29.48-43.76 29.48-28.02 0-40.69-14.94-34.69-39.36 4.67-18.94 20.68-29.35 43.76-29.35 28.02 0 40.69 14.94 34.69 39.22Zm-31.35-2.53c5.07-20.68 3.47-27.48-2.93-27.48-4.67 0-8.54 6.4-12.67 22.68-5.2 20.54-3.6 27.62 2.8 27.62 4.67 0 8.8-6.54 12.81-22.81ZM1073.3 65.72h39.09c-3.47 9.47-6.94 22.55-12.67 46.03-9.34 38.29-24.95 48.69-55.36 48.69-19.88 0-26.68-8.67-24.68-18.14 2-9.21 15.08-13.87 28.95-6-5.74 7.34-4.27 14.94 2.27 14.94 7.34 0 13.21-11.34 17.74-31.62-6.14 6.14-14.41 9.87-24.55 9.87-15.48 0-23.61-5.47-18.01-27.75 6.54-26.01 5.87-28.28-.4-28.28l1.87-7.74h39.09c-3.6 9.74-6 18.28-10.27 36.02-2.54 10.41-.8 13.47 3.33 13.47 6 0 10.01-4.94 14.01-21.21 3.47-14.01 3.33-20.54-2.27-20.54l1.87-7.74ZM553.48 198.06c31.75 0 47.23 20.54 39.22 52.83-5.74 22.95-22.68 40.56-50.43 40.56h-54.96l1.87-7.74c6.4 0 8.94-5.6 17.21-38.96 8.27-33.35 8.67-38.95 2.27-38.95l1.87-7.74h42.96Zm-24.15 84.18h6c11.47 0 17.21-8.67 23.75-34.95 8-32.15 3.74-40.02-7.74-40.02h-3.33l-18.68 74.98ZM677.28 244.09c-2.67 10.67-11.61 16.28-19.74 16.28-7.47 0-12.27-5.07-11.47-10.41 3.87-.8 7.07-3.47 7.74-6.27.53-2.13-.53-4-3.2-4-5.87 0-12.94 9.61-15.74 21.61-2.53 10.67-5.07 22.41-6.14 30.15h-32.68c2.8-7.74 5.87-19.48 9.21-32.82 4.54-18.41 4.8-25.08-1.2-25.08l1.87-7.74h37.75l-2.94 11.74c5.74-8.54 14.14-13.21 22.15-13.21 11.61 0 17.08 9.21 14.41 19.74ZM682.48 272.1l3.33-13.47c4.54-18.28 4.8-25.08-1.2-25.08l1.87-7.74h38.55c-3.33 10.81-6.4 22.55-8.94 32.82-4.54 18.41-4.54 24.28 1.47 24.28l-1.73 6.54c-3.2 2-10.54 3.6-18.01 3.6-12.54 0-18.41-8.4-15.34-20.95Zm46.96-67.64c0 9.21-8.54 15.48-18.68 15.48s-16.81-5.07-16.81-12.81c0-9.21 8.67-15.48 18.81-15.48s16.68 5.07 16.68 12.81ZM732.11 265.17c6.8-26.95 6.4-31.62.4-31.62l1.87-7.74h39.09c-3.6 9.74-6.8 21.61-11.07 39.36-2.53 10.41-.8 13.47 4.94 13.47s13.74-4.94 16.94-17.88c2.54-10.27-1.2-16.68-9.21-13.47-.8-12.94 5.74-23.21 16.94-23.21 9.34 0 19.88 7.47 14.81 27.21-7.07 27.48-34.42 41.62-54.16 41.62-18.01 0-26.15-5.47-20.54-27.75ZM844.71 264.5c.27 10.81 5.47 16.14 14.41 16.14 7.87 0 14.94-4 20.01-12.94l8.54 3.87c-7.2 12.81-15.88 21.48-38.02 21.48-27.62 0-41.62-15.34-35.62-39.49 3.47-13.87 14.27-29.22 45.36-29.22 21.61 0 32.15 10.81 29.08 23.21-3.6 14.41-21.61 16.81-43.76 16.94Zm13.74-30.95c-6.27 0-10.94 8.94-13.07 22.55 9.87-.53 16.81-5.47 18.81-13.47 1.07-4.27-.27-9.07-5.74-9.07Z" class="cls-1"/></g></svg>