<svg xmlns="http://www.w3.org/2000/svg" xmlns:xlink="http://www.w3.org/1999/xlink" xml:space="preserve" id="Layer_1" x="0" y="0" style="enable-background:new 0 0 50 50" version="1.1" viewBox="0 0 50 50"><style>.st0{clip-path:url(#SVGID_00000046301722861560125150000000202335099744002434_);fill:#ffd87d}.st1{fill:#2dabe2}.st1,.st2{clip-path:url(#SVGID_00000046301722861560125150000000202335099744002434_)}.st3,.st4,.st5,.st6{clip-path:url(#SVGID_00000047054573872709353610000001422331008805086391_);fill:#d74f44}.st4,.st5,.st6{fill:#7d2d8f}.st5,.st6{fill:#00a986}.st6{fill:#232229}</style><g id="Holiday_Toy_Drive_Logo_00000138568465972809080600000013991242730523450800_"><defs><path id="SVGID_1_" d="M3.8 1.2h42.7v47.6H3.8z"/></defs><clipPath id="SVGID_00000072272526041987640020000004729871274062843776_"><use xlink:href="#SVGID_1_" style="overflow:visible"/></clipPath><path d="M15.8 20.8h9.4v27.7h-9.4z" style="clip-path:url(#SVGID_00000072272526041987640020000004729871274062843776_);fill:#ffd87d"/><path d="M25.2 20.8h9.4v27.7h-9.4z" style="clip-path:url(#SVGID_00000072272526041987640020000004729871274062843776_);fill:#2dabe2"/><g style="clip-path:url(#SVGID_00000072272526041987640020000004729871274062843776_)"><defs><path id="SVGID_00000119106660642828057460000018070854786488901013_" d="M3.8 1.2h42.7v47.6H3.8z"/></defs><clipPath id="SVGID_00000163042433432948917150000012602033035210084000_"><use xlink:href="#SVGID_00000119106660642828057460000018070854786488901013_" style="overflow:visible"/></clipPath><path d="M9.7 48.4h6.1V20.8H6.3v24.3c0 1.8 1.5 3.3 3.4 3.3" style="clip-path:url(#SVGID_00000163042433432948917150000012602033035210084000_);fill:#d74f44"/><path d="M40.7 48.4h-6.1V20.8H44v24.3c0 1.8-1.4 3.3-3.3 3.3" style="clip-path:url(#SVGID_00000163042433432948917150000012602033035210084000_);fill:#7d2d8f"/><path d="M5.1 18.4v-2.1c0-2.5 2-4.5 4.5-4.5h31.3c2.5 0 4.5 2 4.5 4.5v2.1c0 1.7-1.4 3-3 3H8.1c-1.7.1-3-1.3-3-3" style="clip-path:url(#SVGID_00000163042433432948917150000012602033035210084000_);fill:#00a986"/><path d="M23.1 14s1.8.5 1.8.6v32.2c-10.3.1-10.3.1-20.6.1-.9.4-.5 1.7 1 1.9H45c1.6-.2 2.4-1.8.3-2-1.1-.1-4.2 0-5.7 0h-.5c-1.8 0-3.5-.1-5.3-.1-.7 0-6.6.3-6.7 0 .1-8.3-.1-16.6-.1-24.9 0-2.6 0-5.3.1-7.9.9 0 1.7-.1 2.6-.3 2.3-.5 5.4-2.2 6.8-4.2 3.5-4.8-.9-9.1-4.8-7.7-2.9 1-5.8 7.2-6.8 10.1-1.2-2.6-2.4-6-4.3-8.2-5.8-6.8-12.5 5.4-2.3 9.1 1.6.6 2.8.9 4.8 1.3" style="clip-path:url(#SVGID_00000163042433432948917150000012602033035210084000_);fill:#232229"/></g></g></svg>