<svg xmlns="http://www.w3.org/2000/svg" id="Layer_2" viewBox="0 0 1359.47 448.97"><defs><clipPath id="clippath"><path d="M54.06 52.46h353.41v358H54.06z" class="cls-2"/></clipPath><clipPath id="clippath-1"><path d="M54.06 52.46h353.41v358H54.06z" class="cls-2"/></clipPath><style>.cls-2,.cls-5{stroke-width:0}.cls-2{fill:none}.cls-5{fill:#7c2a90}</style></defs><g id="CCMC_Emblem" style="clip-path:url(#clippath)"><g style="clip-path:url(#clippath-1)"><path d="M289.91 112.29c0 33.04-26.26 59.83-58.66 59.83s-58.66-26.79-58.66-59.83 26.26-59.83 58.66-59.83 58.66 26.79 58.66 59.83" style="stroke-width:0;fill:#00a885"/><path d="M171.86 170.15h117.81V290.3H171.86z" style="fill:#ffd87d;stroke-width:0"/><path d="M171.86 290.3h117.81v120.15H171.86z" style="fill:#00adef;stroke-width:0"/><path d="M348.39 290.3h-58.72V170.15h59.08c32.43 0 58.72 26.82 58.72 59.89s-26.45 60.26-59.08 60.26" class="cls-5"/><path d="M171.86 290.3H112.9c-32.5 0-58.84-26.87-58.84-60.01s26.4-60.14 58.97-60.14h58.84V290.3Z" style="fill:#d84e43;stroke-width:0"/></g></g><path d="M507.14 168.11c-6.05 7.24-16.38 12.68-27.58 12.68-20.02 0-33.58-14.87-33.58-33.83s13.56-34.83 33.58-34.83c11.2 0 21.53 6.18 27.58 14.06V87.86c-8.22-3.46-18.29-6.4-27.83-6.4-37.1 0-67.17 29.03-67.17 64.83s30.07 64.83 67.17 64.83c9.54 0 19.61-2.93 27.83-6.4V168.1ZM529.64 342.83c-7.52 8.99-20.36 15.76-34.28 15.76-24.88 0-41.74-18.48-41.74-42.05s16.86-43.3 41.74-43.3c13.92 0 26.76 7.68 34.28 17.47v-47.64c-10.22-4.3-22.73-7.95-34.59-7.95-46.11 0-83.48 36.08-83.48 80.58s37.38 80.58 83.48 80.58c11.86 0 24.38-3.65 34.59-7.95v-45.52ZM562.47 121.79c-27.92 0-50.56 20.1-50.56 44.89s22.63 44.89 50.56 44.89 50.56-20.1 50.56-44.89-22.63-44.89-50.56-44.89Zm.33 64c-10.68 0-19.33-8.66-19.33-19.33s8.66-19.33 19.33-19.33 19.33 8.66 19.33 19.33-8.66 19.33-19.33 19.33ZM661.69 288.01h36.89v104.78h-36.89zM709.47 223.79h36.89v168.67h-36.89z" class="cls-5"/><circle cx="679.97" cy="248.29" r="20.83" class="cls-5"/><circle cx="1059.14" cy="92.29" r="16.33" class="cls-5"/><path d="M1044.36 124.57h29.11v83.89h-29.11zM746.1 151.42c-2.35 3.66-2.96 9.82-2.96 19.12v37.7h-29.67v-83.23h29.84v11.23c6.6-10.22 13.12-14.11 25.97-14.11 5.66 0 11.94 1.25 16.63 3s7.14 4.61 9.54 7.33c2.41 2.72 4.08 5.8 5.02 9.25s1.42 8.39 1.42 14.81v51.72h-29.67v-42.48s.08-.93.05-2.41c-.11-5.04.08-17.34-11.81-18-8.1-.45-12.39 2.98-14.37 6.07ZM650.78 152.25c-2.35 3.66-2.96 9.82-2.96 19.12v37.7h-29.67v-83.23h29.84v11.23c6.6-10.22 13.12-14.11 25.97-14.11 5.66 0 11.94 1.25 16.63 3s7.14 4.61 9.54 7.33c2.41 2.72 4.08 5.8 5.02 9.25s1.42 8.39 1.42 14.81v51.72H676.9v-42.48s.08-.93.05-2.41c-.11-5.04.08-17.34-11.81-18-8.1-.45-12.39 2.98-14.37 6.07ZM1129.7 321.16c-2.89 4.59-3.65 12.31-3.65 23.96v47.23h-36.57V288.07h36.79v14.06c8.14-12.8 16.18-17.67 32.02-17.67 6.98 0 14.72 1.57 20.5 3.76 5.78 2.19 8.8 5.78 11.77 9.18a28.73 28.73 0 0 1 6.19 11.59c1.16 4.32 1.75 10.51 1.75 18.56v64.81h-36.57v-53.22s.1-1.16.06-3.02c-.13-6.31.1-21.72-14.56-22.56-9.98-.57-15.27 3.73-17.71 7.6ZM581.08 321.71c-2.89 4.59-3.65 12.31-3.65 23.96v47.23h-36.57V223.62h36.79v79.06c8.14-12.8 16.18-17.67 32.02-17.67 6.98 0 14.72 1.57 20.5 3.76 5.78 2.19 8.8 5.78 11.77 9.18a28.73 28.73 0 0 1 6.19 11.59c1.16 4.32 1.75 10.51 1.75 18.56v64.81h-36.57v-53.22s.1-1.16.06-3.02c-.13-6.31.1-21.72-14.56-22.56-9.98-.57-15.27 3.73-17.71 7.6ZM1036.8 124.46h-16.77V98.9h-29.12v25.56H981v24.44h9.91v59.39h29.12V148.9h16.77v-24.44zM1305.93 124.76h-16.78V99.21h-29.11v25.55h-9.92v24.45h9.92v59.39h29.11v-59.39h16.78v-24.45zM898.71 183.2c-3.58 11.76-8.67 16.63-15.92 20.97s-16.33 6.51-27.22 6.51c-17.25 0-30.01-4.88-38.29-14.64-6.54-7.82-9.81-17.68-9.81-29.6 0-14.24 4.3-25.38 12.89-33.44 8.59-8.06 19.46-12.09 32.59-12.09 14.76 0 26.4 4.22 34.93 12.66 8.53 8.44 12.61 21.37 12.23 38.78h-62.75c.19 6.74 2.1 10.45 4.35 12.73 3.87 3.93 8.09 5.62 14.13 5.62 4.11 0 7.56-.97 10.37-2.91 1.62-1.12 3.01-2.64 4.17-4.55m1.59-28.61c-.16-4.46-1.85-7.86-5.07-10.18-3.22-2.32-7.14-3.49-11.76-3.49-4.94 0-9.02 1.23-12.24 3.68-3.22 2.45-4.81 5.78-4.75 9.99h33.83ZM1079.87 362c-4.4 14.48-10.68 20.48-19.62 25.83-8.94 5.35-20.11 8.02-33.54 8.02-21.25 0-36.97-6.01-47.17-18.03-8.05-9.63-12.08-21.79-12.08-36.47 0-17.54 5.29-31.27 15.88-41.2 10.58-9.93 23.97-14.9 40.15-14.9 18.18 0 32.52 5.2 43.03 15.59 10.51 10.4 15.53 26.32 15.07 47.78h-77.3c.23 8.3 2.59 12.87 5.36 15.68 4.77 4.84 9.97 6.92 17.41 6.92 5.06 0 9.32-1.2 12.77-3.59 1.99-1.38 3.7-3.25 5.13-5.6m1.96-35.25c-.2-5.5-2.28-9.68-6.25-12.54-3.97-2.86-8.8-4.29-14.49-4.29-6.09 0-11.11 1.51-15.08 4.53-3.97 3.02-5.92 7.12-5.85 12.31h41.68ZM971.78 181.77c-4.22 5.05-11.16 5.8-17.42 5.8-11.18 0-18.93-10.05-18.93-20.63s9.31-20.92 20.49-20.92c6.25 0 11.64.99 15.86 6.49v-26.75c-5.74-2.42-12.77-4.46-19.43-4.46-25.89 0-46.88 20.26-46.88 45.25s20.99 45.25 46.88 45.25c6.66 0 13.69-2.05 19.43-4.46v-25.56ZM1146.62 182.19c-4.22 5.05-11.16 5.8-17.42 5.8-11.18 0-18.93-10.05-18.93-20.63s9.31-20.92 20.49-20.92c6.25 0 11.64.99 15.86 6.49v-26.75c-5.74-2.42-12.77-4.46-19.43-4.46-25.89 0-46.88 20.26-46.88 45.25s20.99 45.25 46.88 45.25c6.66 0 13.69-2.05 19.43-4.46V182.2ZM1217.69 297.35h-20l21.45-31h22.22l-23.67 31zM964.55 286.71c-.54-.02-8.58-.08-12.5.42-15.22 1.94-21.28 6.26-29.17 19.06v-18.07h-35.92V392.4h35.71v-44.19c.46-11.96 3.84-18.24 7.12-22.5 2.83-3.67 8.92-6.83 15.92-7.17s13 .67 18.83 3.92v-35.75ZM1212.62 124.88v39.56c0 9.66-.72 14.92-2.98 18.02-3 4.11-5.89 5.33-11.86 5.33s-8.86-1.22-11.86-5.33c-2.26-3.1-2.98-8.36-2.98-18.02v-39.56h-29.61v40.81c0 12.05 1.32 22.78 4.59 28.77 3.27 6 7.6 9.1 14.22 12.44 6.6 3.34 15.74 4.88 25.59 4.89s.03 0 .05 0h.05c9.85-.01 18.99-1.55 25.59-4.89 6.62-3.35 10.96-6.45 14.22-12.44s4.59-16.73 4.59-28.77v-40.81h-29.61ZM1303.91 291.79l-11.89 23.44c-10.56-4.89-14.15-4.99-20.79-4.99-3.64 0-6.48.63-8.54 1.88-2.06 1.26-2.67 2.91-2.67 4.78 0 1.42.49 2.4 1.54 3.81 1.46 1.96 3.83 3.52 9.24 4.74 1.45.33 8.66 1.58 10.11 1.89 13.75 2.9 18.5 8.38 21.96 14.24 3.55 6.03 4.38 9.86 4.38 16.87 0 9.33-5.25 20.98-13.67 27.22-8.42 6.24-21.29 10.3-35.44 10.11-16.33-.22-31.44-4.33-42.22-11.89l13.44-25.78c3.8 3.61 9.68 6.34 14.78 8.56s8.93 2.56 12.89 2.56c4.27 0 6.7.02 9.31-1.65 2.61-1.67 3.91-3.6 3.91-5.79 0-4.78-1.89-7.33-7.56-8.89-3.94-1.08-14.51-3.11-18.44-4.22-14.11-4-20.67-13.13-20.67-26 0-8.3 4.02-21.56 11.89-27.44 7.87-5.89 14.48-9.56 26.73-10.11 7.38-.33 14.68-.1 22.61.78 3 .33 10.78 1.56 19.11 5.89ZM839.47 224.01v74.76c-8.99-9.04-20.92-14.54-34-14.54-27.98 0-50.67 25.17-50.67 56.22s22.68 56.22 50.67 56.22c13.08 0 25.01-5.51 34-14.54v10.54h36.89V224h-36.89ZM816.5 364.68c-13.42 0-24.31-10.75-24.31-24s10.88-24 24.31-24 24.31 10.75 24.31 24-10.88 24-24.31 24Z" class="cls-5"/></svg>